<?xml version="1.0" encoding="utf-8"?>
<!-- Generator: Adobe Illustrator 21.0.0, SVG Export Plug-In . SVG Version: 6.00 Build 0)  -->
<svg version="1.1" id="Layer_1" xmlns="http://www.w3.org/2000/svg" xmlns:xlink="http://www.w3.org/1999/xlink" x="0px" y="0px"
	 viewBox="0 0 500 300" style="enable-background:new 0 0 500 300;" xml:space="preserve">
<style type="text/css">
	.st0{fill:#FFFFFF;}
	.st1{font-family:'MoskBold700';}
	.st2{font-size:79px;}
	.st3{font-family:'MoskUltra-Bold900';}
	.st4{letter-spacing:35;}
	.st5{fill:#603813;stroke:#000000;stroke-width:0.75;stroke-miterlimit:10;}
	.st6{fill-rule:evenodd;clip-rule:evenodd;fill:#ED1C24;}
	.st7{fill-rule:evenodd;clip-rule:evenodd;fill:#FFFFFF;}
</style>
<text transform="matrix(1 0 0 1 166.8123 138.873)"><tspan x="0" y="0" class="st0 st1 st2">BRUTUS</tspan><tspan x="0" y="80.6" class="st0 st3 st2 st4">BEER</tspan></text>
<circle class="st5" cx="87.7" cy="154.8" r="72.8"/>
<g>
	<g>
		<path class="st6" d="M52.9,166.7c0,0,1.1,1.5,1.6,1.8c0.6,0.3,1.8,0.3,1.7,1.4c-0.1,1.1-0.1,2.1,1,4.4c1.1,2.3,1.6,3.8,2.5,5.2
			c0.9,1.3,1.8,2.6,2.2,4.1c0.4,1.5,1.5,4,6,4.4c4.5,0.4,6.6,0.1,7.5,0.2c0.9,0.1,1.5,0,1.5-0.3c0.7,0.1,1.9-0.6,1.9-0.6
			c0.6,0,1.9-0.8,1.9-1c0.5-0.3,0.5-0.8,0.8-0.7c0.2,0.1,1.6,0.1,1.5-0.7c0-0.8-1.8-2.6-2.9-3c-1.1-0.3-2.3-0.5-3-0.3
			c-0.7,0.1-2.2,0.3-2.2-0.2c0-0.6-0.6-4.3-0.4-7c0.1-2.7,1.2-4.2-1-8.6c1.6,1.2,8.3,2.3,12.6-1.2c-0.7,2.5-1.4,3.4-1.3,4.8
			c0.1,1.4,0.1,2.9-0.3,3.7c-0.5,0.9-1.1,4-0.1,4.4c1,0.4,1.4,0.5,1.2,1.1c-0.2,0.6,0.3,2.4,1.9,4c1.6,1.6,5.7,2.2,7.7,2
			c2-0.2,2.6-0.2,3,0c0.4,0.2,1.1,0,1-0.2c0.5,0,2,0,1.8-0.4c0.5,0,1.6-0.1,1.3-0.4c1-0.2,1.8-0.6,1.5-1c0.2-0.2,0.9-0.7,0.2-1.3
			c-0.7-0.6-3-1.6-4.1-2c-1.1-0.3-1.9-0.1-3.1-0.2c-1.1-0.1-1.9-0.4-1.6-0.9c0.3-0.5,4-7.9,4.7-10c2.3,3.2,4.5,6.1,5.6,7.8
			c1.1,1.7,2.5,5,4.7,6.3c0.6,0.7,1.6,2.7,2.6,3.7c1,1,4.1,0.7,5.9,0.8c1.8,0.1,4-0.3,4.8-0.2c0.9,0.1,2.8-0.6,2.7-0.9
			c1,0.1,1.4-0.7,1.3-0.9c0.5,0.4,1.1-0.3,1-0.7c0.7,0.3,1.4,0.1,1.2-0.3c0.5-0.1,0.1-0.7-0.4-1.4c-0.6-0.8-2.1-1.6-3.5-1.8
			c-1.4-0.1-3.7,0-4.4,0c-0.7,0-2.7-0.9-2.9-2c-0.1-1.1-0.1-4-0.5-5.7c-0.4-1.8-2.1-5.9-2.3-7c-0.2-1.1-1.5-5.9-1.4-6.5
			c0-0.6,0.8-2.1,1.1-2.6c0.3-0.5,1.1-1.8,1.2-2.3c0.1-0.5,0.6-0.8,0.7-0.4c0,0.4,2.4,0.6,3.7,1.2c1.4,0.6,4.9,1,6,1.8
			c1.2,0.8,2,2.8,5.3,1c1.7-1.1,2.7-2.1,3.7-2c1,0.1,4.1,0,5.5,0c1.4,0,3-0.5,3.6-1.1c0.7-0.5,0.8-0.9,1.4-0.8
			c0.6,0.1,2.1-1.4,2.3-2c0.3-0.6,0.9-1.3,1-1.7c0.1-0.4,0.5-0.8-0.3-1.3c-0.9-0.5-4.5-2.9-5.1-3.4c-0.6-0.5-1.6-2-1.5-3.4
			c0-1.4-0.3-2.3-1.5-3.7c-1.2-1.4-4.2-5.4-4.2-5.4c0.5-0.5,0.7-2.2-0.8-2.6c-1.4-0.5-2.2,0.2-2.4,0.9c-0.3,0.7-0.6,0.8-0.9-0.2
			c-0.3-1-1.1-1.7-1.9-1.6c-0.8,0-1.8,0.3-2,0.5c-0.2,0.3-1.1-0.1-1.8-0.4c-0.6-0.4-2.9-3.2-9.5-3.7c-3.7-0.2-7.3-0.8-10.3-2.2
			c-3-1.4-4.7-2.9-9.5-1c-4.8,1.9-9.9,2.6-14.5,1.6c-4.6-1-13.4-3.5-18.5-3c-5.1,0.5-7.9,0.3-18,6c-2.3,1.2-6.1,3.8-9.2,6
			c-3.1,2.2-3,3.4-2.9,5.3c0.1,1.9,1,2.6,1.2,2.7c0.2,0.1,0.4,0.8,0.2,1.8c-0.1,0.9-1.7,2.9-2.2,6c-0.5,3.1-0.5,5.8-0.4,7
			c0.1,1.3,0.5,3,0.4,3.8c0,0.9-0.1,2.4-1,3.2c-0.8,0.8-3.1,3.1-4.4,4.7c-1.3,1.6-3,3.8-3.8,5.8c-0.8,2-0.4,3,0.4,4.2
			c0.8,1.1,2,4.1,3.3,5.4c1.3,1.3,4.8,3,7.5,2.7c2.6-0.2,4.4-1.2,4.6-2c0.2-0.7,0.1-1,0.4-1.1c0.3-0.1-0.1-1.6-1-1.8
			c-0.8-0.2-2.9,0-3.2-0.9c-0.3-0.9,0.2-2.2,0.9-2.3c0.7-0.1,6.3-1.8,8.4-3.5c2-1.7,4.6-3.8,5.1-4.7C52.3,169.1,53,168.2,52.9,166.7
			z"/>
	</g>
</g>
<g>
	<g>
		<path class="st7" d="M59,166.7c0,0,1.1,1.5,1.6,1.8c0.6,0.3,1.8,0.3,1.7,1.4c-0.1,1.1-0.1,2.1,1,4.4c1.1,2.3,1.6,3.8,2.5,5.2
			c0.9,1.3,1.8,2.6,2.2,4.1c0.4,1.5,1.5,4,6,4.4c4.5,0.4,6.6,0.1,7.5,0.2c0.9,0.1,1.5,0,1.5-0.3c0.7,0.1,1.9-0.6,1.9-0.6
			c0.6,0,1.9-0.8,1.9-1c0.5-0.3,0.5-0.8,0.8-0.7c0.2,0.1,1.6,0.1,1.5-0.7c0-0.8-1.8-2.6-2.9-3c-1.1-0.3-2.3-0.5-3-0.3
			c-0.7,0.1-2.2,0.3-2.2-0.2c0-0.6-0.6-4.3-0.4-7c0.1-2.7,1.2-4.2-1-8.6c1.6,1.2,8.3,2.3,12.6-1.2c-0.7,2.5-1.4,3.4-1.3,4.8
			c0.1,1.4,0.1,2.9-0.3,3.7c-0.5,0.9-1.1,4-0.1,4.4c1,0.4,1.4,0.5,1.2,1.1c-0.2,0.6,0.3,2.4,1.9,4c1.6,1.6,5.7,2.2,7.7,2
			c2-0.2,2.6-0.2,3,0c0.4,0.2,1.1,0,1-0.2c0.5,0,2,0,1.8-0.4c0.5,0,1.6-0.1,1.3-0.4c1-0.2,1.8-0.6,1.5-1c0.2-0.2,0.9-0.7,0.2-1.3
			c-0.7-0.6-3-1.6-4.1-2c-1.1-0.3-1.9-0.1-3.1-0.2c-1.1-0.1-1.9-0.4-1.6-0.9c0.3-0.5,4-7.9,4.7-10c2.3,3.2,4.5,6.1,5.6,7.8
			c1.1,1.7,2.5,5,4.7,6.3c0.6,0.7,1.6,2.7,2.6,3.7c1,1,4.1,0.7,5.9,0.8c1.8,0.1,4-0.3,4.8-0.2c0.9,0.1,2.8-0.6,2.7-0.9
			c1,0.1,1.4-0.7,1.3-0.9c0.5,0.4,1.1-0.3,1-0.7c0.7,0.3,1.4,0.1,1.2-0.3c0.5-0.1,0.1-0.7-0.4-1.4c-0.6-0.8-2.1-1.6-3.5-1.8
			c-1.4-0.1-3.7,0-4.4,0c-0.7,0-2.7-0.9-2.9-2c-0.1-1.1-0.1-4-0.5-5.7c-0.4-1.8-2.1-5.9-2.3-7c-0.2-1.1-1.5-5.9-1.4-6.5
			c0-0.6,0.8-2.1,1.1-2.6c0.3-0.5,1.1-1.8,1.2-2.3c0.1-0.5,0.6-0.8,0.7-0.4c0,0.4,2.4,0.6,3.7,1.2c1.4,0.6,4.9,1,6,1.8
			c1.2,0.8,2,2.8,5.3,1c1.7-1.1,2.7-2.1,3.7-2c1,0.1,4.1,0,5.5,0c1.4,0,3-0.5,3.6-1.1c0.7-0.5,0.8-0.9,1.4-0.8
			c0.6,0.1,2.1-1.4,2.3-2c0.3-0.6,0.9-1.3,1-1.7c0.1-0.4,0.5-0.8-0.3-1.3c-0.9-0.5-4.5-2.9-5.1-3.4c-0.6-0.5-1.6-2-1.5-3.4
			c0-1.4-0.3-2.3-1.5-3.7c-1.2-1.4-4.2-5.4-4.2-5.4c0.5-0.5,0.7-2.2-0.8-2.6c-1.4-0.5-2.2,0.2-2.4,0.9c-0.3,0.7-0.6,0.8-0.9-0.2
			c-0.3-1-1.1-1.7-1.9-1.6c-0.8,0-1.8,0.3-2,0.5c-0.2,0.3-1.1-0.1-1.8-0.4c-0.6-0.4-2.9-3.2-9.5-3.7c-3.7-0.2-7.3-0.8-10.3-2.2
			c-3-1.4-4.7-2.9-9.5-1c-4.8,1.9-9.9,2.6-14.5,1.6c-4.6-1-13.4-3.5-18.5-3c-5.1,0.5-7.9,0.3-18,6c-2.3,1.2-6.1,3.8-9.2,6
			c-3.1,2.2-3,3.4-2.9,5.3c0.1,1.9,1,2.6,1.2,2.7c0.2,0.1,0.4,0.8,0.2,1.8c-0.1,0.9-1.7,2.9-2.2,6c-0.5,3.1-0.5,5.8-0.4,7
			c0.1,1.3,0.5,3,0.4,3.8c0,0.9-0.1,2.4-1,3.2c-0.8,0.8-3.1,3.1-4.4,4.7c-1.3,1.6-3,3.8-3.8,5.8c-0.8,2-0.4,3,0.4,4.2
			c0.8,1.1,2,4.1,3.3,5.4c1.3,1.3,4.8,3,7.5,2.7c2.6-0.2,4.4-1.2,4.6-2c0.2-0.7,0.1-1,0.4-1.1c0.3-0.1-0.1-1.6-1-1.8
			c-0.8-0.2-2.9,0-3.2-0.9c-0.3-0.9,0.2-2.2,0.9-2.3c0.7-0.1,6.3-1.8,8.4-3.5c2-1.7,4.6-3.8,5.1-4.7C58.3,169.1,59,168.2,59,166.7z"
			/>
	</g>
</g>
</svg>
